<?xml version="1.0" encoding="utf-8"?>
<!-- Generator: Adobe Illustrator 16.0.0, SVG Export Plug-In . SVG Version: 6.00 Build 0)  -->
<!DOCTYPE svg PUBLIC "-//W3C//DTD SVG 1.1//EN" "http://www.w3.org/Graphics/SVG/1.1/DTD/svg11.dtd">
<svg version="1.1" id="Capa_1" xmlns="http://www.w3.org/2000/svg" xmlns:xlink="http://www.w3.org/1999/xlink" x="0px" y="0px"
	 width="61.667px" height="69px" viewBox="0 0 61.667 69" enable-background="new 0 0 61.667 69" xml:space="preserve">
<path fill="#C79308" d="M28.646,39.688l20.709,20.71H7.936L28.646,39.688z M51.531,32.177v26.041L30.822,37.512l4.139-4.137
	c-0.078-0.098-0.159-0.194-0.238-0.292c-0.561-0.684-1.138-1.389-1.695-2.132L5.76,58.218V15.651c0-0.564,0.461-1.025,1.025-1.025
	h24.928c2.346-3.622,6.419-6.023,11.045-6.023c7.25,0,13.148,5.898,13.148,13.148C55.906,26.329,53.715,29.468,51.531,32.177z
	 M25.949,25.112h-7.607v2.898h4.48c-0.611,1.891-2.39,3.258-4.48,3.258c-2.598,0-4.707-2.11-4.707-4.707s2.109-4.707,4.707-4.707
	c1.05,0,2.041,0.336,2.869,0.973l1.768-2.296c-1.338-1.032-2.941-1.574-4.637-1.574c-4.193,0-7.605,3.412-7.605,7.604
	s3.412,7.604,7.605,7.604c4.195,0,7.607-3.412,7.607-7.604V25.112L25.949,25.112z M52.826,21.75c0-5.56-4.509-10.069-10.068-10.069
	c-5.563,0-10.07,4.51-10.07,10.069c0,8.36,9.452,10.756,9.452,20.719h0.618h0.617C43.372,32.506,52.826,30.111,52.826,21.75z
	 M42.758,17.144c-2.168,0-3.927,1.759-3.927,3.926s1.759,3.923,3.927,3.923c2.166,0,3.923-1.756,3.923-3.923
	S44.924,17.144,42.758,17.144z"/>
</svg>
