<?xml version="1.0" encoding="utf-8"?>
<!-- Generator: Adobe Illustrator 16.0.0, SVG Export Plug-In . SVG Version: 6.00 Build 0)  -->
<!DOCTYPE svg PUBLIC "-//W3C//DTD SVG 1.1//EN" "http://www.w3.org/Graphics/SVG/1.1/DTD/svg11.dtd">
<svg version="1.1" id="Capa_1" xmlns="http://www.w3.org/2000/svg" xmlns:xlink="http://www.w3.org/1999/xlink" x="0px" y="0px"
	 width="82.5px" height="76.177px" viewBox="0 0 82.5 76.177" enable-background="new 0 0 82.5 76.177" xml:space="preserve">
<g>
	<g>
		<g>
			<polygon fill="#FFFFFF" points="7.846,50.155 26.794,50.155 43.521,9.493 27.348,3.068 			"/>
			<polygon fill="#FFFFFF" points="45.738,50.155 64.13,50.155 74.654,25.226 58.59,18.912 			"/>
		</g>
		<path fill="#FFFFFF" d="M43.676,13.212c0.035-0.083-0.005-0.181-0.09-0.216c-0.084-0.035-0.182,0.005-0.218,0.09l-15.45,37.068
			h0.361L43.676,13.212z"/>
		<path fill="#FFFFFF" d="M43.705,15.998c0.045-0.103-0.004-0.22-0.106-0.262c-0.101-0.043-0.217,0.006-0.26,0.107L28.992,50.155
			h0.433L43.705,15.998z"/>
		<path fill="#FFFFFF" d="M43.92,18.37c0.047-0.111-0.006-0.237-0.115-0.284c-0.111-0.045-0.238,0.008-0.283,0.118L30.301,50.155
			h0.469L43.92,18.37z"/>
		<path fill="#FFFFFF" d="M44.26,20.321c0.045-0.109-0.008-0.234-0.116-0.282c-0.11-0.046-0.237,0.006-0.282,0.116l-12.543,30h0.47
			L44.26,20.321z"/>
		<path fill="#FFFFFF" d="M45.103,22.254c0.072-0.171-0.009-0.366-0.179-0.438c-0.166-0.071-0.362,0.008-0.434,0.178l-11.871,28.16
			h0.721L45.103,22.254z"/>
		<path fill="#FFFFFF" d="M45.492,24.745c0.068-0.172-0.012-0.365-0.182-0.436c-0.17-0.068-0.365,0.01-0.434,0.181L34.326,50.155
			h0.72L45.492,24.745z"/>
		<path fill="#FFFFFF" d="M46.526,26.997c0.089-0.213-0.012-0.457-0.224-0.545c-0.213-0.088-0.455,0.014-0.543,0.225l-9.731,23.479
			h0.901L46.526,26.997z"/>
		<path fill="#FFFFFF" d="M47.648,28.739c0.104-0.256-0.018-0.547-0.271-0.65c-0.257-0.105-0.546,0.019-0.65,0.272l-8.916,21.794
			h1.078L47.648,28.739z"/>
		<path fill="#FFFFFF" d="M49.055,30.25c0.113-0.272-0.015-0.582-0.287-0.696c-0.27-0.112-0.58,0.016-0.693,0.286l-8.473,20.314
			h1.152L49.055,30.25z"/>
		<path fill="#FFFFFF" d="M50.273,31.354c0.112-0.271-0.018-0.582-0.289-0.693c-0.271-0.11-0.582,0.019-0.694,0.291l-7.867,19.203
			h1.149L50.273,31.354z"/>
		<path fill="#FFFFFF" d="M51.201,32.224c0.088-0.212-0.018-0.456-0.229-0.542c-0.213-0.086-0.454,0.017-0.542,0.229l-7.405,18.244
			h0.895L51.201,32.224z"/>
		<path fill="#FFFFFF" d="M52.197,32.739c0.063-0.162-0.015-0.346-0.178-0.408c-0.16-0.066-0.344,0.014-0.408,0.176l-7.004,17.648
			h0.682L52.197,32.739z"/>
	</g>
	<g>
		<path fill="#FFFFFF" d="M21.368,68.288c-0.58,0.3-1.86,0.6-3.48,0.6c-4.281,0-6.882-2.681-6.882-6.782
			c0-4.441,3.081-7.122,7.202-7.122c1.62,0,2.78,0.34,3.28,0.6l-0.54,1.96c-0.64-0.28-1.521-0.52-2.641-0.52
			c-2.74,0-4.721,1.721-4.721,4.961c0,2.961,1.74,4.861,4.701,4.861c1,0,2.04-0.2,2.681-0.5L21.368,68.288z"/>
		<path fill="#FFFFFF" d="M23.866,68.688V55.205h2.801l3.48,5.781c0.9,1.5,1.681,3.061,2.301,4.521h0.04
			c-0.16-1.8-0.22-3.541-0.22-5.601v-4.701h2.28v13.483h-2.54l-3.521-5.921c-0.86-1.48-1.76-3.141-2.42-4.661l-0.061,0.02
			c0.101,1.741,0.12,3.521,0.12,5.742v4.821H23.866z"/>
		<path fill="#FFFFFF" d="M39.307,58.946l1.761,5.221c0.2,0.6,0.4,1.34,0.54,1.9h0.06c0.16-0.56,0.341-1.28,0.521-1.92l1.521-5.201
			h2.641l-2.44,6.642c-1.341,3.641-2.241,5.261-3.401,6.261c-0.96,0.86-1.96,1.18-2.58,1.26l-0.561-2.081
			c0.42-0.1,0.94-0.32,1.44-0.68c0.46-0.3,1-0.88,1.341-1.54c0.1-0.18,0.159-0.32,0.159-0.44c0-0.1-0.02-0.24-0.14-0.48
			l-3.561-8.942H39.307z"/>
		<path fill="#FFFFFF" d="M48.266,68.688V55.205h2.801l3.48,5.781c0.9,1.5,1.681,3.061,2.301,4.521h0.04
			c-0.16-1.8-0.22-3.541-0.22-5.601v-4.701h2.28v13.483h-2.54l-3.521-5.921c-0.86-1.48-1.76-3.141-2.42-4.661l-0.061,0.02
			c0.101,1.741,0.12,3.521,0.12,5.742v4.821H48.266z"/>
	</g>
</g>
</svg>
