<?xml version="1.0" encoding="utf-8"?>
<!-- Generator: Adobe Illustrator 16.0.0, SVG Export Plug-In . SVG Version: 6.00 Build 0)  -->
<!DOCTYPE svg PUBLIC "-//W3C//DTD SVG 1.1//EN" "http://www.w3.org/Graphics/SVG/1.1/DTD/svg11.dtd">
<svg version="1.1" id="Capa_1" xmlns="http://www.w3.org/2000/svg" xmlns:xlink="http://www.w3.org/1999/xlink" x="0px" y="0px"
	 width="82.5px" height="24px" viewBox="0 0 82.5 24" enable-background="new 0 0 82.5 24" xml:space="preserve">
<g>
	<path fill="#FFFFFF" d="M8.761,3.142v10.035c0,3,1.138,4.525,3.155,4.525c2.069,0,3.208-1.448,3.208-4.525V3.142h3.931v9.776
		c0,5.38-2.716,7.94-7.268,7.94c-4.397,0-6.983-2.432-6.983-7.992V3.142H8.761z"/>
	<path fill="#FFFFFF" d="M22.989,20.573V3.142h4.604l3.621,6.388c1.035,1.837,2.069,4.009,2.845,5.975h0.077
		c-0.258-2.302-0.336-4.655-0.336-7.268V3.142h3.621v17.432h-4.139l-3.724-6.725c-1.035-1.862-2.172-4.112-3.026-6.155L26.455,7.72
		c0.104,2.302,0.155,4.759,0.155,7.604v5.25H22.989z"/>
	<path fill="#FFFFFF" d="M45.416,16.099l-1.241,4.475h-4.087l5.328-17.432h5.173l5.405,17.432h-4.242l-1.345-4.475H45.416z
		 M49.838,13.15l-1.086-3.698c-0.311-1.034-0.621-2.328-0.879-3.362h-0.052c-0.259,1.034-0.517,2.354-0.802,3.362l-1.035,3.698
		H49.838z"/>
	<path fill="#FFFFFF" d="M73.583,13.9c-0.078-2.095-0.155-4.629-0.155-7.164h-0.078c-0.543,2.225-1.267,4.707-1.939,6.751
		l-2.121,6.802h-3.078l-1.862-6.751c-0.569-2.043-1.164-4.525-1.578-6.802h-0.052c-0.104,2.354-0.181,5.044-0.31,7.216L62.1,20.573
		h-3.647l1.112-17.432h5.25l1.707,5.819c0.543,2.018,1.086,4.189,1.474,6.232h0.078c0.491-2.017,1.086-4.318,1.655-6.259
		l1.862-5.793h5.146l0.957,17.432h-3.854L73.583,13.9z"/>
</g>
</svg>
