<?xml version="1.0" encoding="utf-8"?>
<!-- Generator: Adobe Illustrator 16.0.0, SVG Export Plug-In . SVG Version: 6.00 Build 0)  -->
<!DOCTYPE svg PUBLIC "-//W3C//DTD SVG 1.1//EN" "http://www.w3.org/Graphics/SVG/1.1/DTD/svg11.dtd">
<svg version="1.1" id="Capa_1" xmlns="http://www.w3.org/2000/svg" xmlns:xlink="http://www.w3.org/1999/xlink" x="0px" y="0px"
	 width="43.859px" height="32.219px" viewBox="0 0 43.859 32.219" enable-background="new 0 0 43.859 32.219" xml:space="preserve">
<g>
	<g>
		<path fill="#FFFFFF" d="M2.612,4.338h38.635c0.995,0,1.811-0.815,1.811-1.811c0-0.996-0.815-1.812-1.811-1.812H2.612
			c-0.996,0-1.811,0.815-1.811,1.812C0.802,3.522,1.616,4.338,2.612,4.338z"/>
		<path fill="#FFFFFF" d="M2.612,17.921h38.635c0.995,0,1.811-0.814,1.811-1.812c0-0.996-0.815-1.812-1.811-1.812H2.612
			c-0.996,0-1.811,0.815-1.811,1.812C0.802,17.106,1.616,17.921,2.612,17.921z"/>
		<path fill="#FFFFFF" d="M2.612,31.503h38.635c0.995,0,1.811-0.814,1.811-1.811s-0.815-1.812-1.811-1.812H2.612
			c-0.996,0-1.811,0.815-1.811,1.812S1.616,31.503,2.612,31.503z"/>
	</g>
</g>
</svg>
