<?xml version="1.0" encoding="utf-8"?>
<!-- Generator: Adobe Illustrator 16.0.0, SVG Export Plug-In . SVG Version: 6.00 Build 0)  -->
<!DOCTYPE svg PUBLIC "-//W3C//DTD SVG 1.1//EN" "http://www.w3.org/Graphics/SVG/1.1/DTD/svg11.dtd">
<svg version="1.1" id="Capa_1" xmlns="http://www.w3.org/2000/svg" xmlns:xlink="http://www.w3.org/1999/xlink" x="0px" y="0px"
	 width="259.5px" height="240.5px" viewBox="0 0 259.5 240.5" enable-background="new 0 0 259.5 240.5" xml:space="preserve">
<g>
	<path opacity="0.6" fill="#FFFFFF" d="M158.657,81.846h-58.509L75.429,49.24l29.459-28.799h49.29l29.291,26.722L158.657,81.846z
		 M101.812,78.495h55.122l22.08-30.861L152.881,23.79h-46.63L79.885,49.571L101.812,78.495z"/>
	<polygon opacity="0.6" fill="#FFFFFF" points="130.194,171.332 81.78,135.132 99.383,79.664 102.577,80.678 85.693,133.877 
		130.194,167.148 174.681,133.886 157.052,80.697 160.231,79.643 178.621,135.123 	"/>
	<polygon opacity="0.6" fill="#FFFFFF" points="45.418,149.471 27.606,113.055 42.496,65.883 76.841,46.703 78.474,49.628 
		45.292,68.158 31.201,112.785 47.127,145.342 83.192,132.922 84.282,136.09 	"/>
	<polygon opacity="0.6" fill="#FFFFFF" points="149.809,220.351 109.925,220.351 91.463,214.373 91.272,214.232 52.125,185.666 
		43.269,172.164 45.757,170.532 54.316,183.578 92.834,211.687 110.396,217.37 149.339,217.37 166.982,211.685 207.138,182.975 
		215.612,168.608 228.608,131.77 228.608,112.05 213.511,67.548 179.638,48.699 181.085,46.098 215.96,65.504 231.583,111.558 
		231.583,132.278 231.499,132.52 218.323,169.871 209.385,185.03 209.129,185.213 168.337,214.376 168.116,214.445 	"/>
	<polygon opacity="0.6" fill="#FFFFFF" points="92.326,214.508 91.97,211.553 128.891,207.119 128.891,168 131.87,168 
		131.87,209.762 	"/>
	
		<rect x="130.248" y="209.247" transform="matrix(0.9933 0.1157 -0.1157 0.9933 25.3922 -15.9517)" opacity="0.6" fill="#FFFFFF" width="39.692" height="2.976"/>
	<polygon opacity="0.6" fill="#FFFFFF" points="109.349,219.626 93.424,202.679 62.705,181.247 70.314,156.816 99.942,162.405 
		115.188,187.871 113.272,189.019 98.544,164.415 71.853,159.38 65.324,180.35 94.893,200.979 94.971,201.065 110.974,218.096 	"/>
	<polygon opacity="0.6" fill="#FFFFFF" points="94.797,202.745 93.52,200.912 113.88,186.709 146.217,186.709 159.919,163.463 
		144.389,141.251 116.044,141.251 100.145,162.967 98.341,161.646 114.911,139.019 145.553,139.019 162.573,163.356 
		147.493,188.942 114.58,188.942 	"/>
	<polygon opacity="0.6" fill="#FFFFFF" points="152.046,219.084 150.401,217.574 166.917,199.567 167.013,199.501 195.75,179.213 
		218.847,168.23 219.805,170.248 196.881,181.146 168.4,201.256 	"/>
	<polygon opacity="0.6" fill="#FFFFFF" points="145.193,140.496 143.082,139.771 152.206,113.202 129.54,96.951 107.766,113.193 
		116.538,139.784 114.417,140.484 105.14,112.366 129.514,94.186 154.856,112.359 	"/>
	<polygon opacity="0.6" fill="#FFFFFF" points="161.454,163.402 161.039,161.209 189.023,155.898 198.206,124.782 180.03,105.063 
		153.888,113.84 153.176,111.723 180.692,102.487 200.705,124.199 190.781,157.838 	"/>
	
		<rect x="183.111" y="166.452" transform="matrix(0.3207 0.9472 -0.9472 0.3207 289.8889 -69.0838)" opacity="0.6" fill="#FFFFFF" width="19.998" height="2.235"/>
	
		<rect x="144.888" y="194.021" transform="matrix(0.841 0.5411 -0.5411 0.841 130.5936 -54.0566)" opacity="0.6" fill="#FFFFFF" width="24.739" height="2.233"/>
	<polygon opacity="0.6" fill="#FFFFFF" points="70.017,158.435 59.623,125.473 79.501,102.476 106.81,111.725 106.094,113.837 
		80.208,105.073 62.126,125.99 72.148,157.763 	"/>
	<polygon opacity="0.6" fill="#FFFFFF" points="60.197,126.621 39.873,111.13 50.898,74.478 76.152,74.05 100.807,54.823 
		129.247,66.656 156.045,53.987 182.71,73.392 207.789,73.392 207.789,75.623 181.983,75.623 181.688,75.408 155.804,56.57 
		129.305,69.1 101.151,57.385 76.936,76.269 52.567,76.684 42.457,110.289 61.552,124.844 	"/>
	<rect x="128.332" y="69.185" opacity="0.6" fill="#FFFFFF" width="2.234" height="26.384"/>
	
		<rect x="64.821" y="89.386" transform="matrix(0.1236 0.9923 -0.9923 0.1236 158.3408 1.7163)" opacity="0.6" fill="#FFFFFF" width="26.755" height="2.23"/>
	
		<rect x="180.603" y="75.096" transform="matrix(0.9955 0.0944 -0.0944 0.9955 9.2569 -16.7543)" opacity="0.6" fill="#FFFFFF" width="2.235" height="28.744"/>
	<polygon opacity="0.6" fill="#FFFFFF" points="200.426,126.858 198.48,124.607 216.381,109.137 206.33,75.9 203.052,52.06 
		170.158,28.679 153.102,23.54 153.96,20.688 171.485,25.969 171.683,26.111 205.827,50.381 209.248,75.261 219.792,110.129 	"/>
	<path fill="#FFFFFF" stroke="#E95C0C" stroke-width="8" stroke-miterlimit="10" d="M214.737,66.525"/>
	<polygon opacity="0.6" fill="#FFFFFF" points="45.211,68.053 42.576,65.988 53.894,51.555 54.059,51.428 84.605,27.948 
		104.998,20.542 106.141,23.689 86.234,30.92 56.269,53.952 	"/>
	
		<rect x="52.29" y="52.627" transform="matrix(0.9884 0.1521 -0.1521 0.9884 10.3014 -7.3838)" opacity="0.6" fill="#FFFFFF" width="2.234" height="22.009"/>
	<polygon opacity="0.6" fill="#FFFFFF" points="103.906,56.471 101.797,55.737 110.241,31.46 148.273,31.46 157.001,54.172 
		154.917,54.971 146.739,33.69 111.829,33.69 	"/>
	
		<rect x="157.539" y="18.494" transform="matrix(0.2287 0.9735 -0.9735 0.2287 151.5216 -131.3512)" opacity="0.6" fill="#FFFFFF" width="2.233" height="22.909"/>
	
		<rect x="88.372" y="29.315" transform="matrix(0.9823 0.1874 -0.1874 0.9823 7.4713 -18.1645)" opacity="0.6" fill="#FFFFFF" width="22.866" height="2.234"/>
	
		<rect x="200.912" y="58.053" transform="matrix(0.5936 0.8048 -0.8048 0.5936 133.1015 -144.4734)" opacity="0.6" fill="#FFFFFF" width="17.352" height="2.979"/>
	
		<rect x="34.065" y="111.018" transform="matrix(0.8396 0.5431 -0.5431 0.8396 71.9747 0.1462)" opacity="0.6" fill="#FFFFFF" width="3.35" height="21.891"/>
	
		<rect x="30.35" y="164.892" transform="matrix(0.183 0.9831 -0.9831 0.183 204.4749 87.0898)" opacity="0.6" fill="#FFFFFF" width="38.98" height="3.351"/>
	<polygon opacity="0.6" fill="#FFFFFF" points="63.413,182.162 41.337,172.439 27.913,130.146 27.913,112.92 30.891,112.92 
		30.891,129.686 43.767,170.257 64.613,179.437 	"/>
	<polygon opacity="0.6" fill="#FFFFFF" points="209.432,184.318 206.144,183.686 213.02,147.931 176.14,136.098 177.163,132.912 
		216.872,145.648 	"/>
	
		<rect x="220.335" y="110.053" transform="matrix(0.9104 0.4136 -0.4136 0.9104 73.4947 -80.2259)" opacity="0.6" fill="#FFFFFF" width="3.348" height="39.102"/>
	
		<rect x="212.305" y="118.287" transform="matrix(0.5094 0.8605 -0.8605 0.5094 212.9989 -134.075)" opacity="0.6" fill="#FFFFFF" width="23.571" height="2.974"/>
	<circle fill="#FFFFFF" cx="77.657" cy="48.165" r="4.59"/>
	<circle fill="#FFFFFF" cx="43.894" cy="67.02" r="3.823"/>
	<circle fill="#FFFFFF" cx="29.404" cy="112.92" r="3.823"/>
	<circle fill="#FFFFFF" cx="53.221" cy="184.622" r="3.822"/>
	<circle fill="#FFFFFF" cx="92.149" cy="213.029" r="3.823"/>
	<circle fill="#FFFFFF" cx="169.805" cy="213.029" r="3.823"/>
	<circle fill="#FFFFFF" cx="208.262" cy="184.002" r="3.824"/>
	<circle fill="#FFFFFF" cx="230.096" cy="111.803" r="3.823"/>
	<circle fill="#FFFFFF" cx="214.736" cy="66.525" r="3.823"/>
	<circle fill="#FFFFFF" cx="181.241" cy="47.397" r="3.823"/>
	<circle fill="#FFFFFF" cx="153.206" cy="22.116" r="3.823"/>
	<circle fill="#FFFFFF" cx="105.569" cy="22.116" r="3.823"/>
	<circle fill="#FFFFFF" cx="100.979" cy="80.17" r="4.591"/>
	<circle fill="#FFFFFF" cx="157.795" cy="80.17" r="4.589"/>
	<circle fill="#FFFFFF" cx="176.651" cy="134.506" r="4.59"/>
	<circle fill="#FFFFFF" cx="83.737" cy="134.506" r="4.589"/>
	<path fill="#FFFFFF" d="M134.97,168c0,2.535-2.055,4.588-4.591,4.588c-2.533,0-4.59-2.053-4.59-4.588
		c0-2.537,2.057-4.591,4.59-4.591C132.916,163.409,134.97,165.463,134.97,168z"/>
	<circle fill="#FFFFFF" cx="88.575" cy="28.32" r="3.349"/>
	<path fill="#FFFFFF" d="M58.429,52.756c0,1.85-1.499,3.348-3.348,3.348c-1.852,0-3.351-1.498-3.351-3.348
		c0-1.853,1.499-3.35,3.351-3.35C56.93,49.406,58.429,50.903,58.429,52.756z"/>
	<circle fill="#FFFFFF" cx="41.165" cy="110.709" r="3.35"/>
	<circle fill="#FFFFFF" cx="29.403" cy="131.154" r="3.349"/>
	<circle fill="#FFFFFF" cx="42.552" cy="171.347" r="3.349"/>
	<circle fill="#FFFFFF" cx="110.162" cy="218.86" r="3.348"/>
	<circle fill="#FFFFFF" cx="151.224" cy="218.86" r="3.35"/>
	<circle fill="#FFFFFF" cx="218.086" cy="169.24" r="3.35"/>
	<circle fill="#FFFFFF" cx="230.095" cy="129.916" r="3.35"/>
	<circle fill="#FFFFFF" cx="204.439" cy="51.221" r="3.349"/>
	<path fill="#FFFFFF" d="M174.169,27.324c0,1.849-1.5,3.349-3.351,3.349c-1.849,0-3.348-1.5-3.348-3.349
		c0-1.853,1.499-3.349,3.348-3.349C172.669,23.976,174.169,25.472,174.169,27.324z"/>
	<circle fill="#FFFFFF" cx="147.505" cy="32.574" r="3.138"/>
	<circle fill="#FFFFFF" cx="111.034" cy="32.574" r="3.139"/>
	<circle fill="#FFFFFF" cx="51.732" cy="75.58" r="3.139"/>
	<circle fill="#FFFFFF" cx="76.545" cy="75.159" r="2.717"/>
	<circle fill="#FFFFFF" cx="102.851" cy="56.104" r="2.719"/>
	<circle fill="#FFFFFF" cx="129.277" cy="67.88" r="2.718"/>
	<circle fill="#FFFFFF" cx="155.925" cy="55.278" r="2.719"/>
	<circle fill="#FFFFFF" cx="182.346" cy="74.506" r="2.718"/>
	<circle fill="#FFFFFF" cx="180.36" cy="103.775" r="2.719"/>
	<circle fill="#FFFFFF" cx="199.453" cy="124.491" r="2.718"/>
	<circle fill="#FFFFFF" cx="189.901" cy="156.868" r="2.717"/>
	<circle fill="#FFFFFF" cx="161.246" cy="162.306" r="2.719"/>
	<circle fill="#FFFFFF" cx="146.857" cy="187.824" r="2.719"/>
	<path fill="#FFFFFF" d="M116.95,188.443c0,1.504-1.218,2.721-2.721,2.721c-1.501,0-2.718-1.217-2.718-2.721
		c0-1.499,1.217-2.716,2.718-2.716C115.732,185.728,116.95,186.944,116.95,188.443z"/>
	<circle fill="#FFFFFF" cx="99.243" cy="163.409" r="2.718"/>
	<circle fill="#FFFFFF" cx="71.083" cy="156.868" r="2.718"/>
	<circle fill="#FFFFFF" cx="60.875" cy="125.732" r="2.717"/>
	<circle fill="#FFFFFF" cx="79.855" cy="103.775" r="2.72"/>
	<circle fill="#FFFFFF" cx="106.454" cy="112.781" r="2.429"/>
	<path fill="#FFFFFF" d="M117.906,140.69c0,1.345-1.088,2.432-2.429,2.432s-2.429-1.087-2.429-2.432c0-1.34,1.088-2.426,2.429-2.426
		S117.906,139.351,117.906,140.69z"/>
	<path fill="#FFFFFF" d="M147.399,140.136c0,1.339-1.088,2.428-2.427,2.428c-1.343,0-2.429-1.089-2.429-2.428
		c0-1.344,1.086-2.431,2.429-2.431C146.311,137.705,147.399,138.792,147.399,140.136z"/>
	<circle fill="#FFFFFF" cx="153.53" cy="112.781" r="2.429"/>
	<circle fill="#FFFFFF" cx="129.527" cy="95.568" r="2.43"/>
	<circle fill="#FFFFFF" cx="207.79" cy="75.58" r="3.139"/>
	<circle fill="#FFFFFF" cx="218.086" cy="109.632" r="3.14"/>
	<circle fill="#FFFFFF" cx="196.315" cy="180.178" r="3.139"/>
	<path fill="#FFFFFF" d="M170.797,201.83c0,1.731-1.404,3.137-3.139,3.137c-1.732,0-3.14-1.405-3.14-3.137
		c0-1.736,1.407-3.14,3.14-3.14C169.393,198.69,170.797,200.094,170.797,201.83z"/>
	<path fill="#FFFFFF" d="M97.296,201.83c0,1.731-1.405,3.137-3.139,3.137s-3.139-1.405-3.139-3.137c0-1.736,1.405-3.14,3.139-3.14
		S97.296,200.094,97.296,201.83z"/>
	<path fill="#FFFFFF" d="M67.152,180.797c0,1.736-1.405,3.142-3.141,3.142c-1.73,0-3.137-1.405-3.137-3.142
		c0-1.732,1.406-3.138,3.137-3.138C65.747,177.659,67.152,179.064,67.152,180.797z"/>
	<circle fill="#FFFFFF" cx="46.273" cy="147.405" r="4.59"/>
	<circle fill="#FFFFFF" cx="214.737" cy="147.405" r="4.59"/>
	<circle fill="#FFFFFF" cx="130.38" cy="208.439" r="4.59"/>
</g>
</svg>
