<?xml version="1.0" encoding="utf-8"?>
<!-- Generator: Adobe Illustrator 16.0.0, SVG Export Plug-In . SVG Version: 6.00 Build 0)  -->
<!DOCTYPE svg PUBLIC "-//W3C//DTD SVG 1.1//EN" "http://www.w3.org/Graphics/SVG/1.1/DTD/svg11.dtd">
<svg version="1.1" id="Capa_1" xmlns="http://www.w3.org/2000/svg" xmlns:xlink="http://www.w3.org/1999/xlink" x="0px" y="0px"
	 width="43.859px" height="32.219px" viewBox="0 0 43.859 32.219" enable-background="new 0 0 43.859 32.219" xml:space="preserve">
<path fill="#FFFFFF" d="M24.491,16.11L36.87,3.731c0.704-0.705,0.704-1.857,0-2.562c-0.705-0.705-1.857-0.705-2.562,0L21.929,13.548
	L9.551,1.169c-0.704-0.705-1.857-0.704-2.561,0c-0.705,0.705-0.705,1.856,0,2.561l12.378,12.378L6.989,28.488
	c-0.704,0.704-0.704,1.856,0,2.562c0.705,0.704,1.858,0.704,2.562,0L21.93,18.671l12.378,12.378c0.704,0.704,1.856,0.705,2.561,0
	c0.704-0.704,0.704-1.857,0-2.561L24.491,16.11z"/>
</svg>
