<?xml version="1.0" encoding="utf-8"?>
<!-- Generator: Adobe Illustrator 16.0.0, SVG Export Plug-In . SVG Version: 6.00 Build 0)  -->
<!DOCTYPE svg PUBLIC "-//W3C//DTD SVG 1.1//EN" "http://www.w3.org/Graphics/SVG/1.1/DTD/svg11.dtd">
<svg version="1.1" id="Capa_1" xmlns="http://www.w3.org/2000/svg" xmlns:xlink="http://www.w3.org/1999/xlink" x="0px" y="0px"
	 width="37.667px" height="38px" viewBox="0 0 37.667 38" enable-background="new 0 0 37.667 38" xml:space="preserve">
<g id="XMLID_1_">
	<circle id="XMLID_6_" fill="#2A9BC3" cx="18.833" cy="19.002" r="18.44"/>
	<g id="XMLID_2_">
		<path id="XMLID_3_" fill="#F1F2F2" d="M30.217,11.941c-0.838,0.371-1.74,0.621-2.684,0.733c0.963-0.577,1.705-1.491,2.053-2.583
			c-0.9,0.535-1.9,0.924-2.965,1.133c-0.854-0.906-2.064-1.475-3.408-1.475c-2.58,0-4.67,2.092-4.67,4.672
			c0,0.364,0.039,0.721,0.119,1.063c-3.881-0.194-7.322-2.054-9.627-4.878c-0.4,0.689-0.631,1.49-0.631,2.348
			c0,1.619,0.824,3.049,2.078,3.887c-0.766-0.024-1.486-0.234-2.115-0.585c0,0.021,0,0.04,0,0.06c0,2.262,1.607,4.148,3.746,4.578
			c-0.393,0.105-0.805,0.164-1.23,0.164c-0.303,0-0.596-0.029-0.879-0.082c0.594,1.855,2.318,3.205,4.363,3.242
			c-1.6,1.254-3.613,1.998-5.803,1.998c-0.375,0-0.748-0.021-1.113-0.064c2.068,1.324,4.521,2.098,7.16,2.098
			c8.59,0,13.289-7.115,13.289-13.287c0-0.203-0.006-0.405-0.014-0.605C28.797,13.7,29.588,12.879,30.217,11.941L30.217,11.941z
			 M30.217,11.941"/>
	</g>
</g>
</svg>
